<?xml version="1.0" encoding="UTF-8" standalone="no"?>
<!-- Created with Inkscape (http://www.inkscape.org/) -->

<svg
   width="1000mm"
   height="1000mm"
   viewBox="0 0 1000 1000"
   version="1.1"
   id="svg1"
   inkscape:version="1.4 (86a8ad7, 2024-10-11)"
   sodipodi:docname="logo-svg.svg"
   inkscape:export-filename="Logo pb.png"
   inkscape:export-xdpi="53.772564"
   inkscape:export-ydpi="53.772564"
   xmlns:inkscape="http://www.inkscape.org/namespaces/inkscape"
   xmlns:sodipodi="http://sodipodi.sourceforge.net/DTD/sodipodi-0.dtd"
   xmlns="http://www.w3.org/2000/svg"
   xmlns:svg="http://www.w3.org/2000/svg">
  <sodipodi:namedview
     id="namedview1"
     pagecolor="#ffffff"
     bordercolor="#000000"
     borderopacity="0.25"
     inkscape:showpageshadow="2"
     inkscape:pageopacity="0.0"
     inkscape:pagecheckerboard="0"
     inkscape:deskcolor="#d1d1d1"
     inkscape:document-units="mm"
     inkscape:zoom="0.25990636"
     inkscape:cx="1477.4552"
     inkscape:cy="2145.0033"
     inkscape:window-width="2560"
     inkscape:window-height="1369"
     inkscape:window-x="1912"
     inkscape:window-y="-8"
     inkscape:window-maximized="1"
     inkscape:current-layer="svg1" />
  <defs
     id="defs1">
    <rect
       x="908.01935"
       y="704.09975"
       width="88.493411"
       height="238.54746"
       id="rect2" />
  </defs>
  <path
     id="text38"
     style="font-weight:bold;font-size:68.9692px;line-height:10;font-family:'Nirmala Text';-inkscape-font-specification:'Nirmala Text Bold';text-align:center;letter-spacing:10.8162px;text-anchor:middle;white-space:pre;inline-size:946.316;fill:#000000;fill-rule:evenodd;stroke-width:0.540814;stroke-linecap:round;stroke-linejoin:round;paint-order:stroke markers fill"
     d="m 87.443293,528.88791 q -5.287189,2.55941 -13.80731,2.55941 -11.113201,0 -17.478035,-6.53322 -6.364833,-6.53321 -6.364833,-17.41068 0,-11.58467 7.13939,-18.79141 7.173066,-7.20675 18.589354,-7.20675 7.072037,0 11.921434,1.78485 v 10.47335 q -4.849397,-2.89617 -11.045848,-2.89617 -6.802626,0 -10.978496,4.2769 -4.175869,4.2769 -4.175869,11.58467 0,7.00469 3.940135,11.18056 3.940135,4.14219 10.608055,4.14219 6.364834,0 11.652023,-3.09823 z m 61.027667,1.7175 h -10.91114 v -19.667 h -20.00377 v 19.667 H 106.67859 V 482.3135 h 10.87746 v 19.26288 h 20.00377 V 482.3135 h 10.91114 z m 62.37472,0 h -12.49394 l -7.50983,-12.42658 Q 190,516.76442 189.22545,515.6531 q -0.77456,-1.11132 -1.58279,-1.88588 -0.77456,-0.80823 -1.65014,-1.21235 -0.84191,-0.43779 -1.8522,-0.43779 h -2.92985 v 18.48833 H 170.33301 V 482.3135 h 17.2423 q 17.57906,0 17.57906,13.13378 0,2.52573 -0.77456,4.68102 -0.77455,2.12161 -2.18896,3.8391 -1.41441,1.7175 -3.43499,2.96352 -1.98691,1.24603 -4.44528,1.95323 v 0.13471 q 1.07764,0.33676 2.08793,1.11132 1.01029,0.74088 1.95323,1.75117 0.94294,1.01029 1.78485,2.18896 0.87559,1.145 1.58279,2.25632 z m -29.63521,-40.14223 v 13.43687 h 4.71469 q 3.50235,0 5.62396,-2.02058 2.15528,-2.05426 2.15528,-5.08514 0,-6.33115 -7.57718,-6.33115 z m 55.84151,40.14223 H 226.17451 V 482.3135 h 10.87747 z m 19.57206,-1.8522 v -10.77644 q 2.92984,2.45837 6.36483,3.7044 3.43499,1.21235 6.93733,1.21235 2.05426,0 3.5697,-0.37044 1.54911,-0.37044 2.5594,-1.01029 1.04397,-0.67353 1.54911,-1.54911 0.50515,-0.90927 0.50515,-1.95323 0,-1.41441 -0.80823,-2.52573 -0.80824,-1.11132 -2.22264,-2.05426 -1.38073,-0.94294 -3.30029,-1.81852 -1.91955,-0.87559 -4.14219,-1.78485 -5.65763,-2.35735 -8.45277,-5.75866 -2.76146,-3.40131 -2.76146,-8.21703 0,-3.77176 1.51544,-6.46587 1.51543,-2.72778 4.10851,-4.47895 2.62676,-1.75117 6.06175,-2.55941 3.43499,-0.84191 7.27409,-0.84191 3.77176,0 6.66792,0.47147 2.92985,0.4378 5.38822,1.38073 v 10.06924 q -1.21235,-0.84191 -2.66043,-1.48176 -1.41441,-0.63985 -2.92984,-1.04397 -1.51544,-0.43779 -3.03088,-0.63985 -1.48176,-0.20206 -2.82881,-0.20206 -1.8522,0 -3.36764,0.37044 -1.51543,0.33677 -2.5594,0.97662 -1.04397,0.63985 -1.61647,1.54911 -0.5725,0.87558 -0.5725,1.9869 0,1.21235 0.63986,2.18897 0.63985,0.94294 1.81852,1.81852 1.17867,0.84191 2.86249,1.68382 1.68382,0.80823 3.80543,1.68382 2.89617,1.21235 5.18616,2.59308 2.32367,1.34705 3.97381,3.06455 1.65014,1.71749 2.52573,3.94013 0.87558,2.18897 0.87558,5.11881 0,4.04117 -1.54911,6.80263 -1.51543,2.72778 -4.14219,4.44528 -2.62676,1.68382 -6.1291,2.4247 -3.46867,0.74088 -7.34145,0.74088 -3.97381,0 -7.57718,-0.67353 -3.5697,-0.67353 -6.19645,-2.02058 z m 85.61141,-37.58283 h -13.77364 v 39.43503 h -10.91114 v -39.43503 h -13.70628 v -8.85688 h 38.39106 z m 28.19321,39.43503 H 359.55119 V 482.3135 h 10.87747 z m 64.26058,0 h -11.85408 l -3.43499,-10.74276 h -17.17495 l -3.40131,10.74276 h -11.78673 l 17.57906,-48.29191 h 12.89805 z m -17.78112,-19.0945 -5.18616,-16.23201 q -0.5725,-1.81853 -0.80824,-4.34425 h -0.26941 q -0.16838,2.12161 -0.84191,4.20954 l -5.25351,16.36672 z m 78.06792,19.0945 h -10.9785 L 464.09481,500.263 q -1.75117,-2.66043 -2.4247,-4.00749 h -0.13471 q 0.26941,2.55941 0.26941,7.81292 v 26.53698 H 451.53352 V 482.3135 h 11.71938 l 19.16185,29.39947 q 1.31338,1.9869 2.4247,3.94013 h 0.1347 q -0.26941,-1.68382 -0.26941,-6.63424 V 482.3135 h 10.2713 z m 72.11325,0.84191 q -10.37232,0 -16.90554,-6.73528 -6.53321,-6.76895 -6.53321,-17.61274 0,-11.44996 6.63424,-18.522 6.63425,-7.07204 17.57906,-7.07204 10.33865,0 16.70348,6.76895 6.39851,6.76895 6.39851,17.84848 0,11.38261 -6.63424,18.35362 -6.60057,6.97101 -17.2423,6.97101 z m 0.47147,-40.58003 q -5.72499,0 -9.09262,4.31058 -3.36764,4.2769 -3.36764,11.34894 0,7.17306 3.36764,11.34893 3.36763,4.17587 8.82321,4.17587 5.62395,0 8.92423,-4.04116 3.30029,-4.07484 3.30029,-11.28159 0,-7.50983 -3.19926,-11.6857 -3.19925,-4.17587 -8.75585,-4.17587 z m 70.99587,39.73812 H 609.79701 V 482.3135 h 10.87747 v 39.4687 h 17.88215 z m 28.19323,0 H 655.87239 V 482.3135 h 10.87747 z m 62.00429,-48.29191 -16.63612,48.29191 H 699.79248 L 683.35841,482.3135 h 11.71937 l 10.06924,33.60901 q 0.80823,2.72779 0.97661,4.81572 h 0.20206 q 0.23574,-2.25631 1.04397,-4.95042 l 10.00188,-33.47431 z m 45.57021,48.29191 H 745.36268 V 482.3135 h 27.85036 v 8.85688 h -16.97289 v 10.74276 h 15.79422 v 8.82321 h -15.79422 v 11.04585 h 18.08421 z m 29.43923,0 H 792.88612 V 482.3135 h 10.87747 z m 62.30732,0 h -12.49393 l -7.50983,-12.42658 q -0.84191,-1.41441 -1.61647,-2.52573 -0.77455,-1.11132 -1.58279,-1.88588 -0.77455,-0.80823 -1.65014,-1.21235 -0.84191,-0.43779 -1.8522,-0.43779 h -2.92984 v 18.48833 H 825.55824 V 482.3135 h 17.2423 q 17.57906,0 17.57906,13.13378 0,2.52573 -0.77455,4.68102 -0.77456,2.12161 -2.18897,3.8391 -1.4144,1.7175 -3.43499,2.96352 -1.9869,1.24603 -4.44528,1.95323 v 0.13471 q 1.07765,0.33676 2.08794,1.11132 1.01029,0.74088 1.95323,1.75117 0.94294,1.01029 1.78485,2.18896 0.87558,1.145 1.58278,2.25632 z m -29.6352,-40.14223 v 13.43687 h 4.71469 q 3.50234,0 5.62395,-2.02058 2.15529,-2.05426 2.15529,-5.08514 0,-6.33115 -7.57718,-6.33115 z m 87.42998,40.14223 h -11.85408 l -3.43499,-10.74276 h -17.17495 l -3.40131,10.74276 H 876.21363 L 893.7927,482.3135 h 12.89805 z m -17.78112,-19.0945 -5.18616,-16.23201 q -0.5725,-1.81853 -0.80823,-4.34425 h -0.26941 q -0.16839,2.12161 -0.84191,4.20954 l -5.25352,16.36672 z M 295.44985,236.23882 c -34.11102,0 -66.1196,6.96852 -96.02517,20.90481 -29.90556,13.9363 -56.07289,33.29223 -78.50207,58.06786 -22.429169,24.77563 -39.951944,54.19667 -52.568354,88.26317 -6.424119,17.08341 -11.192481,35.04707 -14.345518,53.87021 l 45.38699,-0.11144 c 2.380232,-12.71848 5.551422,-24.97933 9.611652,-36.72575 10.28004,-28.38875 24.53171,-52.90601 42.75542,-73.55237 18.2237,-21.16252 39.48487,-37.16378 63.78313,-48.00312 24.76555,-11.3555 51.40018,-17.03301 79.90392,-17.03301 23.36373,0 45.09172,3.6133 65.18452,10.83953 20.56008,7.22622 39.7184,17.2908 57.47483,30.19478 4.67274,2.58079 9.57938,3.61316 14.7194,3.097 5.14003,-0.51615 9.34524,-3.09656 12.61616,-7.74199 3.7382,-6.19391 5.14009,-12.38815 4.20554,-18.58205 -0.93454,-6.71007 -4.20564,-12.1295 -9.81293,-16.25877 -20.0928,-14.96861 -42.52174,-26.58227 -67.28729,-34.84082 -24.76555,-8.25855 -50.46558,-12.38804 -77.10023,-12.38804 z m -197.112679,329.33764 -45.370735,0.1109 c 3.088473,22.02457 8.169662,42.82594 15.38782,62.31622 13.083684,34.06649 31.073756,63.48753 53.970204,88.26317 22.89645,24.25947 49.06379,43.09922 78.50207,56.51935 29.43829,13.42013 60.97957,20.13056 94.62332,20.13056 17.75644,0 35.51285,-2.32285 53.26928,-6.96827 17.75644,-4.12927 34.57826,-9.80733 50.46559,-17.03355 15.88734,-7.22622 29.67171,-14.96849 41.35357,-23.22704 5.14002,-3.6131 8.17747,-8.51635 9.11201,-14.71026 1.40182,-6.71006 -7e-5,-12.9043 -4.20554,-18.58205 -3.27092,-5.16159 -7.70979,-8.00009 -13.31708,-8.51625 -5.14002,-1.03233 -10.04666,5e-5 -14.71941,3.09701 -17.75643,12.38781 -36.91475,22.19483 -57.47482,29.42106 -20.0928,7.22622 -41.58715,10.839 -64.4836,10.839 -28.03646,0 -54.20379,-5.41943 -78.50206,-16.25877 -24.29827,-10.83934 -45.79309,-26.5825 -64.48407,-47.22886 -18.22371,-20.64636 -32.47538,-45.16364 -42.75542,-73.55237 -5.02507,-14.12925 -8.80241,-29.01062 -11.371129,-44.61985 z M 573.01056,243.2071 c -6.54184,0 -11.9153,2.32283 -16.12077,6.96827 -4.20546,4.64542 -6.30832,10.32294 -6.30832,17.03301 V 456.1291 l 44.15727,-0.10828 V 267.20838 c 0,-6.71007 -2.33603,-12.38759 -7.00876,-17.03301 -4.20548,-4.64544 -9.11212,-6.96827 -14.71942,-6.96827 z m 328.7277,0 c -6.07457,0 -11.44804,2.32283 -16.12077,6.96827 -4.20547,4.64542 -6.30832,10.32294 -6.30832,17.03301 v 188.11583 l 44.15726,-0.10827 V 267.20838 c 0,-6.71007 -2.10284,-12.38759 -6.30831,-17.03301 -3.73819,-4.64544 -8.87801,-6.96827 -15.41986,-6.96827 z m 21.72817,320.34923 -44.15726,0.10827 v 197.50825 c 0,6.71007 2.10285,12.38759 6.30832,17.03302 4.20546,4.64543 9.34527,6.96826 15.41985,6.96826 6.54184,0 11.68165,-2.32283 15.41985,-6.96826 4.20546,-4.64543 6.54196,-10.32295 7.00924,-17.03302 z m -328.72769,0.80488 -44.15727,0.10826 v 196.70338 c 0,6.71007 1.8692,12.38759 5.60739,17.03302 4.20547,4.64543 9.57894,6.96826 16.12079,6.96826 5.6073,0 10.51394,-2.32283 14.7194,-6.96826 4.67274,-4.64543 7.24242,-10.32295 7.70969,-17.03302 z"
     transform="matrix(1.0808252,0,0,0.97846216,-27.910748,0)" />
</svg>
