<?xml version="1.0" encoding="UTF-8" standalone="no"?>
<!-- Created with Inkscape (http://www.inkscape.org/) -->

<svg
   width="944.7196mm"
   height="544.68817mm"
   viewBox="0 0 944.7196 544.68817"
   version="1.1"
   id="svg1"
   xmlns="http://www.w3.org/2000/svg"
   xmlns:svg="http://www.w3.org/2000/svg">
  <defs
     id="defs1" />
  <path
     id="text38"
     style="font-weight:bold;font-size:68.9692px;line-height:10;font-family:'Nirmala Text';-inkscape-font-specification:'Nirmala Text Bold';text-align:center;letter-spacing:10.8162px;text-anchor:middle;white-space:pre;inline-size:946.316;fill:#000000;fill-rule:evenodd;stroke-width:0.556157;stroke-linecap:round;stroke-linejoin:round;paint-order:stroke markers fill"
     d="m 40.693262,286.34604 q -5.714527,2.50428 -14.923288,2.50428 -12.011428,0 -18.8907007,-6.3925 Q 1.3578961e-6,276.06532 1.3578961e-6,265.42212 q 0,-11.33516 7.7164326421039,-18.38668 7.75283,-7.05153 20.091842,-7.05153 7.643636,0 12.884986,1.74641 v 10.24777 q -5.24135,-2.83379 -11.938631,-2.83379 -7.352449,0 -11.865835,4.18479 -4.513384,4.18478 -4.513384,11.33516 0,6.85382 4.258597,10.93975 4.258597,4.05298 11.465453,4.05298 6.879273,0 12.5938,-3.0315 z m 65.960238,1.68051 H 94.860468 V 268.78313 H 73.239889 v 19.24342 H 61.483256 v -47.25181 h 11.756633 v 18.848 h 21.620579 v -18.848 H 106.6535 Z m 67.41617,0 h -13.50376 l -8.11682,-12.15894 q -0.90995,-1.38395 -1.74711,-2.47133 -0.83716,-1.08739 -1.71072,-1.84526 -0.83716,-0.79083 -1.78351,-1.18624 -0.90996,-0.42836 -2.0019,-0.42836 h -3.16666 v 18.09013 h -11.75663 v -47.25181 h 18.63591 q 18.99989,0 18.99989,12.85091 0,2.47133 -0.83716,4.5802 -0.83716,2.07591 -2.36589,3.75641 -1.52873,1.68051 -3.71262,2.89969 -2.1475,1.2192 -4.80457,1.91117 v 0.1318 q 1.16474,0.32951 2.25669,1.08739 1.09194,0.72492 2.1111,1.71345 1.01915,0.98853 1.92911,2.14182 0.94636,1.12034 1.71072,2.20772 z m -32.03048,-39.27766 v 13.14747 h 5.09576 q 3.78542,0 6.07851,-1.97706 2.32948,-2.01001 2.32948,-4.97562 0,-6.19479 -8.1896,-6.19479 z m 60.35491,39.27766 h -11.75664 v -47.25181 h 11.75664 z m 21.15398,-1.81231 V 275.6699 q 3.16664,2.40542 6.87927,3.62462 3.71262,1.18623 7.49804,1.18623 2.22029,0 3.85822,-0.36246 1.67432,-0.36246 2.76626,-0.98853 1.12835,-0.65902 1.67432,-1.51574 0.54598,-0.88969 0.54598,-1.91116 0,-1.38395 -0.87356,-2.47134 -0.87356,-1.08738 -2.40228,-2.01001 -1.49233,-0.92263 -3.56704,-1.77935 -2.0747,-0.85674 -4.47698,-1.74641 -6.11491,-2.30658 -9.13597,-5.63463 -2.98465,-3.32806 -2.98465,-8.04006 0,-3.69052 1.63792,-6.32661 1.63792,-2.66903 4.44058,-4.38248 2.83907,-1.71345 6.55169,-2.50428 3.71263,-0.82378 7.86202,-0.82378 4.07662,0 7.20686,0.46131 3.16666,0.42837 5.82372,1.351 v 9.85237 q -1.31033,-0.82378 -2.87546,-1.44985 -1.52873,-0.62607 -3.16664,-1.02149 -1.63793,-0.42836 -3.27585,-0.62606 -1.60153,-0.19771 -3.05745,-0.19771 -2.00191,0 -3.63983,0.36246 -1.63792,0.32952 -2.76627,0.95559 -1.12834,0.62606 -1.74712,1.51574 -0.61877,0.85672 -0.61877,1.94411 0,1.18624 0.69158,2.14182 0.69156,0.92263 1.9655,1.77935 1.27394,0.82378 3.09385,1.64756 1.81992,0.79082 4.11301,1.64755 3.13025,1.18624 5.60533,2.53723 2.51148,1.31804 4.29499,2.99855 1.78352,1.6805 2.72987,3.85527 0.94635,2.14182 0.94635,5.00856 0,3.95413 -1.67431,6.65612 -1.63792,2.66903 -4.47699,4.34953 -2.83907,1.64756 -6.62448,2.37248 -3.74903,0.72492 -7.93483,0.72492 -4.29499,0 -8.1896,-0.65902 -3.85823,-0.65902 -6.69728,-1.97706 z m 92.53097,-36.77338 h -14.8869 v 38.58569 h -11.79304 v -38.58569 h -14.81409 v -8.66612 h 41.49403 z m 30.47193,38.58569 h -11.75665 v -47.25181 h 11.75665 z m 69.45445,0 h -12.81219 l -3.71262,-10.51139 H 380.9175 l -3.67622,10.51139 h -12.73939 l 18.99989,-47.25181 h 13.94053 z m -19.21828,-18.68325 -5.60533,-15.88241 q -0.61878,-1.77936 -0.87357,-4.25068 h -0.29118 q -0.18199,2.07591 -0.90996,4.11888 l -5.67813,16.01421 z m 84.37778,18.68325 h -11.86584 l -21.51138,-29.6889 q -1.89271,-2.60313 -2.62067,-3.92118 h -0.1456 q 0.29118,2.50429 0.29118,7.64465 v 25.96543 h -11.10147 v -47.25181 h 12.66661 l 20.71061,28.76627 q 1.41953,1.94411 2.62067,3.85527 h 0.14559 q -0.29118,-1.64756 -0.29118,-6.49136 v -26.13018 h 11.10148 z m 77.94181,0.82377 q -11.21066,0 -18.27193,-6.59021 -7.06126,-6.62316 -7.06126,-17.2334 0,-11.20335 7.17045,-18.12308 7.17047,-6.91972 18.9999,-6.91972 11.17427,0 18.05354,6.62316 6.91567,6.62316 6.91567,17.46406 0,11.13746 -7.17045,17.95832 -7.13407,6.82087 -18.63592,6.82087 z m 0.50958,-39.70602 q -6.18771,0 -9.82753,4.21774 -3.63983,4.18478 -3.63983,11.10451 0,7.01857 3.63983,11.1045 3.63982,4.08593 9.53634,4.08593 6.07851,0 9.64554,-3.95412 3.56703,-3.98708 3.56703,-11.03861 0,-7.34809 -3.45784,-11.43402 -3.45783,-4.08593 -9.46354,-4.08593 z m 76.73412,38.88225 h -31.08412 v -47.25181 h 11.75665 v 38.61863 h 19.32747 z m 30.47196,0 h -11.75665 v -47.25181 h 11.75665 z m 67.0158,-47.25181 -17.98074,47.25181 h -13.32177 l -17.76235,-47.25181 h 12.66659 l 10.88309,32.88514 q 0.87355,2.66904 1.05554,4.712 h 0.21839 q 0.2548,-2.20771 1.12835,-4.84379 l 10.81029,-32.75335 z m 49.25343,47.25181 h -31.30251 v -47.25181 h 30.10137 v 8.66612 h -18.34473 v 10.51139 h 17.07079 v 8.63317 h -17.07079 v 10.80795 h 19.54587 z m 31.81866,0 h -11.75664 v -47.25181 h 11.75664 z m 67.34332,0 h -13.50375 l -8.11682,-12.15894 q -0.90995,-1.38395 -1.74712,-2.47133 -0.83715,-1.08739 -1.71072,-1.84526 -0.83715,-0.79083 -1.78351,-1.18624 -0.90996,-0.42836 -2.0019,-0.42836 h -3.16665 v 18.09013 H 838.4665 v -47.25181 h 18.63591 q 18.99989,0 18.99989,12.85091 0,2.47133 -0.83715,4.5802 -0.83717,2.07591 -2.3659,3.75641 -1.52872,1.68051 -3.71262,2.89969 -2.14749,1.2192 -4.80457,1.91117 v 0.1318 q 1.16475,0.32951 2.2567,1.08739 1.09194,0.72492 2.1111,1.71345 1.01915,0.98853 1.92911,2.14182 0.94635,1.12034 1.71071,2.20772 z m -32.03047,-39.27766 v 13.14747 h 5.09576 q 3.78541,0 6.0785,-1.97706 2.3295,-2.01001 2.3295,-4.97562 0,-6.19479 -8.18961,-6.19479 z m 94.49653,39.27766 h -12.81219 l -3.71263,-10.51139 h -18.56311 l -3.67623,10.51139 h -12.73939 l 18.9999,-47.25181 h 13.94054 z m -19.21829,-18.68325 -5.60533,-15.88241 q -0.61877,-1.77936 -0.87355,-4.25068 h -0.29119 q -0.182,2.07591 -0.90996,4.11888 l -5.67813,16.01421 z M 265.51199,-2.3418809e-5 C 228.64394,-2.3418809e-5 194.04826,6.8184097 161.72557,20.454542 129.40288,34.090684 101.12057,53.029729 76.878552,77.271746 52.636541,101.51376 33.697484,130.30114 20.06135,163.63392 13.118,180.34939 7.9642348,197.92615 4.5563529,216.34388 l 49.0554021,-0.10904 c 2.572615,-12.44455 6.000117,-24.44133 10.388516,-35.93476 11.110926,-27.77731 26.51449,-51.76652 46.211139,-71.96821 19.69663,-20.706723 42.67624,-36.36335 68.93841,-46.969234 26.76723,-11.110927 55.55461,-16.666156 86.36217,-16.666156 25.25211,0 48.73627,3.535478 70.45307,10.60607 22.22186,7.070583 42.92865,16.918394 62.12025,29.54445 5.05041,2.525205 10.35363,3.53534 15.9091,3.030297 5.55547,-0.505033 10.10057,-3.029867 13.63586,-7.575244 4.04034,-6.060507 5.55554,-12.121336 4.54545,-18.181833 C 431.16565,55.55467 427.63016,50.251963 421.56966,46.211629 399.85286,31.56541 375.61109,20.201884 348.84386,12.121205 322.07663,4.0405263 294.29939,-2.3418809e-5 265.51199,-2.3418809e-5 Z M 52.46764,322.2444 3.4298067,322.35291 c 3.3380994,21.55021 8.8299763,41.90356 16.6315433,60.97406 14.141175,33.33277 33.585299,62.12015 58.332357,86.36217 24.747063,23.73698 53.029383,42.17096 84.847013,55.30205 31.81765,13.13109 65.90826,19.69699 102.27127,19.69699 19.19161,0 38.38318,-2.27282 57.57478,-6.81819 19.19161,-4.04033 37.37306,-9.5961 54.54448,-16.66668 17.17144,-7.07059 32.06993,-14.6461 44.69598,-22.72678 5.55547,-3.53528 8.83842,-8.33293 9.84849,-14.39344 1.51513,-6.56554 -7e-5,-12.62637 -4.54545,-18.18183 -3.53529,-5.05042 -8.33294,-7.82778 -14.39344,-8.33283 -5.55546,-1.01009 -10.85868,5e-5 -15.90911,3.03031 -19.19159,12.121 -39.89839,21.7168 -62.12023,28.78739 -21.7168,7.07059 -44.94844,10.60556 -69.6955,10.60556 -30.30251,0 -58.58482,-5.30271 -84.847,-15.9086 C 154.4028,473.47721 131.17066,458.07312 110.96898,437.87144 91.272333,417.66976 75.868769,393.68053 64.757843,365.90323 59.326621,352.07829 55.243976,337.51744 52.46764,322.2444 Z M 565.5066,6.8181749 c -7.07058,0 -12.87836,2.2728013 -17.42373,6.8181881 -4.54537,4.545368 -6.81819,10.100606 -6.81819,16.666156 V 215.1543 l 47.72629,-0.10595 V 30.302519 c 0,-6.56555 -2.52484,-12.120788 -7.57525,-16.666156 -4.54539,-4.5453868 -9.84861,-6.8181881 -15.90912,-6.8181881 z m 355.29718,0 c -6.56555,0 -12.37333,2.2728013 -17.42373,6.8181881 -4.54538,4.545368 -6.81819,10.100606 -6.81819,16.666156 V 214.36674 l 47.72628,-0.10594 V 30.302519 c 0,-6.56555 -2.27281,-12.120788 -6.81818,-16.666156 -4.04033,-4.5453868 -9.59558,-6.8181881 -16.66618,-6.8181881 z m 23.48436,313.4496051 -47.72628,0.10593 v 193.25435 c 0,6.56555 2.27281,12.12079 6.81819,16.66617 4.54537,4.54538 10.1006,6.81818 16.66616,6.81818 7.07059,0 12.62582,-2.2728 16.66616,-6.81818 4.54537,-4.54538 7.07072,-10.10062 7.57577,-16.66617 z m -355.29717,0.78754 -47.72629,0.10593 v 192.46681 c 0,6.56555 2.02027,12.12079 6.0606,16.66617 4.54538,4.54538 10.35316,6.81818 17.42376,6.81818 6.06051,0 11.36373,-2.2728 15.9091,-6.81818 5.05041,-4.54538 7.82779,-10.10062 8.33283,-16.66617 z" />
</svg>
