<?xml version="1.0" encoding="UTF-8" standalone="no"?>
<!-- Created with Inkscape (http://www.inkscape.org/) -->

<svg
   width="1000mm"
   height="1000mm"
   viewBox="0 0 1000 1000"
   version="1.1"
   id="svg1"
   xmlns="http://www.w3.org/2000/svg"
   xmlns:svg="http://www.w3.org/2000/svg">
  <defs
     id="defs1" />
  <path
     id="text38"
     style="font-weight:bold;font-size:68.9692px;line-height:10;font-family:'Nirmala Text';-inkscape-font-specification:'Nirmala Text Bold';text-align:center;letter-spacing:10.8162px;text-anchor:middle;white-space:pre;inline-size:946.316;fill:#ffffff;fill-rule:evenodd;stroke-width:0.556157;stroke-linecap:round;stroke-linejoin:round;paint-order:stroke markers fill"
     d="m 66.600167,517.49681 q -5.714527,2.50428 -14.923289,2.50428 -12.011428,0 -18.890701,-6.39251 -6.879272,-6.39249 -6.879272,-17.03569 0,-11.33516 7.716433,-18.38668 7.752831,-7.05153 20.091842,-7.05153 7.643636,0 12.884987,1.7464 v 10.24778 q -5.241351,-2.83379 -11.938631,-2.83379 -7.35245,0 -11.865835,4.18478 -4.513385,4.18479 -4.513385,11.33516 0,6.85383 4.258597,10.93976 4.258598,4.05298 11.465454,4.05298 6.879273,0 12.5938,-3.0315 z m 65.960243,1.68051 H 120.76737 V 499.9339 H 99.146793 v 19.24342 H 87.39016 v -47.25181 h 11.756633 v 18.848 h 21.620577 v -18.848 h 11.79304 z m 67.41617,0 H 186.47281 L 178.356,507.01838 q -0.90996,-1.38395 -1.74711,-2.47133 -0.83717,-1.08739 -1.71072,-1.84527 -0.83717,-0.79082 -1.78352,-1.18623 -0.90995,-0.42837 -2.0019,-0.42837 h -3.16666 v 18.09014 h -11.75663 v -47.25181 h 18.63591 q 18.99989,0 18.99989,12.85091 0,2.47133 -0.83716,4.5802 -0.83715,2.07591 -2.36588,3.75641 -1.52873,1.68051 -3.71263,2.89969 -2.1475,1.2192 -4.80457,1.91116 v 0.13181 q 1.16474,0.32951 2.25669,1.08739 1.09195,0.72492 2.1111,1.71345 1.01915,0.98853 1.92911,2.14182 0.94636,1.12034 1.71072,2.20772 z m -32.03049,-39.27766 v 13.14747 h 5.09576 q 3.78543,0 6.07852,-1.97706 2.32948,-2.01002 2.32948,-4.97562 0,-6.19479 -8.18961,-6.19479 z m 60.35492,39.27766 h -11.75665 v -47.25181 h 11.75665 z m 21.15397,-1.81231 v -10.54434 q 3.16665,2.40542 6.87927,3.62461 3.71262,1.18624 7.49804,1.18624 2.2203,0 3.85822,-0.36246 1.67432,-0.36246 2.76627,-0.98853 1.12835,-0.65902 1.67431,-1.51574 0.54598,-0.88969 0.54598,-1.91117 0,-1.38394 -0.87355,-2.47133 -0.87357,-1.08738 -2.40229,-2.01001 -1.49233,-0.92263 -3.56703,-1.77936 -2.0747,-0.85673 -4.47699,-1.7464 -6.11491,-2.30658 -9.13596,-5.63464 -2.98466,-3.32805 -2.98466,-8.04005 0,-3.69052 1.63793,-6.32661 1.63791,-2.66903 4.44058,-4.38248 2.83907,-1.71345 6.55169,-2.50429 3.71262,-0.82377 7.86202,-0.82377 4.07661,0 7.20685,0.46131 3.16666,0.42837 5.82373,1.35099 v 9.85237 q -1.31034,-0.82377 -2.87546,-1.44984 -1.52873,-0.62607 -3.16665,-1.02149 -1.63792,-0.42836 -3.27585,-0.62607 -1.60152,-0.1977 -3.05745,-0.1977 -2.0019,0 -3.63983,0.36246 -1.63791,0.32951 -2.76626,0.95558 -1.12835,0.62607 -1.74712,1.51575 -0.61877,0.85672 -0.61877,1.94411 0,1.18623 0.69157,2.14182 0.69157,0.92263 1.9655,1.77935 1.27394,0.82378 3.09386,1.64756 1.81991,0.79082 4.113,1.64755 3.13025,1.18624 5.60533,2.53723 2.51148,1.31804 4.295,2.99855 1.78351,1.6805 2.72987,3.85527 0.94635,2.14182 0.94635,5.00856 0,3.95413 -1.67432,6.65611 -1.63791,2.66903 -4.47698,4.34954 -2.83907,1.64756 -6.62449,2.37248 -3.74902,0.72492 -7.93482,0.72492 -4.295,0 -8.18961,-0.65902 -3.85822,-0.65902 -6.69728,-1.97706 z m 92.53097,-36.77338 h -14.8869 v 38.58569 h -11.79303 v -38.58569 h -14.81409 v -8.66612 h 41.49402 z m 30.47193,38.58569 h -11.75664 v -47.25181 h 11.75664 z m 69.45446,0 h -12.81219 l -3.71263,-10.51139 h -18.56311 l -3.67623,10.51139 h -12.73939 l 18.99989,-47.25181 h 13.94054 z m -19.21829,-18.68325 -5.60533,-15.88241 q -0.61877,-1.77936 -0.87356,-4.25068 h -0.29119 q -0.18199,2.07591 -0.90996,4.11887 l -5.67812,16.01422 z m 84.37778,18.68325 h -11.86584 l -21.51137,-29.6889 q -1.89271,-2.60313 -2.62068,-3.92118 h -0.1456 q 0.29119,2.50428 0.29119,7.64464 v 25.96544 h -11.10147 v -47.25181 h 12.6666 l 20.71061,28.76627 q 1.41953,1.9441 2.62068,3.85527 h 0.14558 q -0.29118,-1.64756 -0.29118,-6.49136 v -26.13018 h 11.10148 z m 77.94182,0.82377 q -11.21067,0 -18.27194,-6.59021 -7.06125,-6.62317 -7.06125,-17.2334 0,-11.20336 7.17045,-18.12308 7.17046,-6.91972 18.99989,-6.91972 11.17427,0 18.05354,6.62316 6.91567,6.62316 6.91567,17.46406 0,11.13745 -7.17045,17.95832 -7.13406,6.82087 -18.63591,6.82087 z m 0.50957,-39.70602 q -6.18771,0 -9.82753,4.21774 -3.63983,4.18478 -3.63983,11.10451 0,7.01856 3.63983,11.1045 3.63982,4.08593 9.53635,4.08593 6.07851,0 9.64553,-3.95413 3.56704,-3.98707 3.56704,-11.03861 0,-7.34808 -3.45784,-11.43401 -3.45783,-4.08593 -9.46355,-4.08593 z m 76.73413,38.88225 h -31.08412 v -47.25181 h 11.75664 v 38.61863 h 19.32748 z m 30.47195,0 h -11.75664 v -47.25181 h 11.75664 z m 67.0158,-47.25181 -17.98074,47.25181 H 728.4426 l -17.76236,-47.25181 h 12.66659 l 10.88309,32.88514 q 0.87356,2.66904 1.05555,4.712 h 0.21839 q 0.25479,-2.20771 1.12835,-4.8438 l 10.81028,-32.75334 z m 49.25343,47.25181 h -31.30251 v -47.25181 h 30.10137 v 8.66612 h -18.34473 v 10.51139 h 17.07079 v 8.63317 h -17.07079 v 10.80795 h 19.54587 z m 31.81866,0 h -11.75664 v -47.25181 h 11.75664 z m 67.34333,0 h -13.50376 l -8.11681,-12.15894 q -0.90996,-1.38395 -1.74712,-2.47133 -0.83716,-1.08739 -1.71072,-1.84527 -0.83716,-0.79082 -1.78352,-1.18623 -0.90995,-0.42837 -2.0019,-0.42837 h -3.16664 v 18.09014 H 864.3734 v -47.25181 h 18.63591 q 18.9999,0 18.9999,12.85091 0,2.47133 -0.83716,4.5802 -0.83716,2.07591 -2.36589,3.75641 -1.52872,1.68051 -3.71263,2.89969 -2.14749,1.2192 -4.80457,1.91116 v 0.13181 q 1.16476,0.32951 2.2567,1.08739 1.09195,0.72492 2.1111,1.71345 1.01916,0.98853 1.92911,2.14182 0.94635,1.12034 1.71071,2.20772 z m -32.03047,-39.27766 v 13.14747 h 5.09575 q 3.78542,0 6.07851,-1.97706 2.32949,-2.01002 2.32949,-4.97562 0,-6.19479 -8.18961,-6.19479 z m 94.49652,39.27766 h -12.81219 l -3.71262,-10.51139 h -18.56312 l -3.67622,10.51139 h -12.7394 l 18.99991,-47.25181 h 13.94053 z m -19.21828,-18.68325 -5.60533,-15.88241 q -0.61878,-1.77936 -0.87356,-4.25068 h -0.29118 q -0.182,2.07591 -0.90996,4.11887 l -5.67814,16.01422 z M 291.4189,231.15075 c -36.86805,0 -71.46373,6.81843 -103.78643,20.45456 -32.32268,13.63614 -60.60499,32.57519 -84.84701,56.81721 -24.242015,24.24201 -43.181072,53.02939 -56.817206,86.36217 -6.943349,16.71547 -12.097115,34.29223 -15.504997,52.70996 l 49.055403,-0.10904 c 2.572614,-12.44455 6.000116,-24.44133 10.388515,-35.93476 11.110925,-27.77731 26.514495,-51.76653 46.211135,-71.96821 19.69663,-20.70672 42.67624,-36.36335 68.93841,-46.96923 26.76724,-11.11093 55.55461,-16.66616 86.36218,-16.66616 25.2521,0 48.73626,3.53548 70.45307,10.60607 22.22185,7.07058 42.92864,16.91839 62.12024,29.54445 5.05042,2.5252 10.35364,3.53534 15.9091,3.0303 5.55547,-0.50504 10.10057,-3.02987 13.63586,-7.57525 4.04034,-6.0605 5.55554,-12.12133 4.54546,-18.18183 -1.01008,-6.56555 -4.54556,-11.86826 -10.60606,-15.90859 C 425.75976,262.71618 401.518,251.35265 374.75077,243.27197 347.98354,235.1913 320.2063,231.15075 291.4189,231.15075 Z M 78.374545,553.39516 29.336711,553.50368 c 3.338099,21.5502 8.829976,41.90356 16.631543,60.97406 14.141176,33.33277 33.585299,62.12015 58.332356,86.36217 24.74706,23.73697 53.02938,42.17096 84.84702,55.30205 31.81764,13.13109 65.90825,19.69699 102.27127,19.69699 19.1916,0 38.38318,-2.27282 57.57478,-6.81819 19.1916,-4.04034 37.37305,-9.5961 54.54448,-16.66668 17.17143,-7.07059 32.06993,-14.64611 44.69598,-22.72678 5.55546,-3.53529 8.83841,-8.33293 9.84849,-14.39344 1.51512,-6.56554 -8e-5,-12.62637 -4.54546,-18.18183 -3.53529,-5.05042 -8.33293,-7.82779 -14.39343,-8.33283 -5.55546,-1.01009 -10.85869,5e-5 -15.90911,3.03031 -19.1916,12.121 -39.89839,21.7168 -62.12023,28.78739 -21.71681,7.07059 -44.94844,10.60555 -69.6955,10.60555 -30.30252,0 -58.58483,-5.3027 -84.84701,-15.90859 C 180.30971,704.62798 157.07756,689.22389 136.87588,669.02221 117.17924,648.82053 101.77567,624.8313 90.664747,597.054 85.233525,583.22906 81.150881,568.66821 78.374545,553.39516 Z M 591.41351,237.96894 c -7.07059,0 -12.87836,2.27281 -17.42374,6.81819 -4.54537,4.54537 -6.81819,10.10061 -6.81819,16.66616 v 184.85177 l 47.72629,-0.10594 V 261.45329 c 0,-6.56555 -2.52484,-12.12079 -7.57524,-16.66616 -4.54539,-4.54538 -9.84861,-6.81819 -15.90912,-6.81819 z m 355.29718,0 c -6.56555,0 -12.37333,2.27281 -17.42374,6.81819 -4.54538,4.54537 -6.81819,10.10061 -6.81819,16.66616 v 184.06422 l 47.72628,-0.10594 V 261.45329 c 0,-6.56555 -2.2728,-12.12079 -6.81818,-16.66616 -4.04033,-4.54538 -9.59558,-6.81819 -16.66617,-6.81819 z m 23.48435,313.4496 -47.72628,0.10594 v 193.25435 c 0,6.56555 2.27281,12.12079 6.81819,16.66617 4.54537,4.54537 10.10061,6.81818 16.66617,6.81818 7.07058,0 12.62582,-2.27281 16.66616,-6.81818 4.54536,-4.54538 7.07071,-10.10062 7.57576,-16.66617 z m -355.29717,0.78755 -47.72629,0.10593 v 192.46681 c 0,6.56555 2.02028,12.12079 6.06061,16.66617 4.54538,4.54537 10.35316,6.81818 17.42375,6.81818 6.06052,0 11.36374,-2.27281 15.9091,-6.81818 5.05042,-4.54538 7.82779,-10.10062 8.33283,-16.66617 z" />
</svg>
